<?xml version="1.0" encoding="UTF-8" standalone="no"?>
<!DOCTYPE svg PUBLIC "-//W3C//DTD SVG 1.1//EN" "http://www.w3.org/Graphics/SVG/1.1/DTD/svg11.dtd">
<svg width="100%" height="100%" viewBox="0 0 800 800" version="1.1" xmlns="http://www.w3.org/2000/svg" xmlns:xlink="http://www.w3.org/1999/xlink" xml:space="preserve" xmlns:serif="http://www.serif.com/" style="fill-rule:evenodd;clip-rule:evenodd;stroke-linejoin:round;stroke-miterlimit:2;">
    <g id="Plan-de-travail1" serif:id="Plan de travail1" transform="matrix(12.1077,0,0,3.39224,-676.923,-493.103)">
        <rect x="55.909" y="145.362" width="66.074" height="235.832" style="fill:none;"/>
        <g transform="matrix(0.0959159,0,0,0.342346,50.579,126.34)">
            <path d="M400,57.287C522.304,57.287 621.599,156.582 621.599,278.886C621.599,467.736 400,742.713 400,742.713C400,742.713 178.401,462.412 178.401,278.886C178.401,156.582 277.696,57.287 400,57.287Z" style="fill:white;"/>
        </g>
        <g transform="matrix(0.092783,0,0,0.331164,51.8322,130.813)">
            <path d="M400,57.287C522.304,57.287 621.599,156.582 621.599,278.886C621.599,467.736 400,742.713 400,742.713C400,742.713 178.401,462.412 178.401,278.886C178.401,156.582 277.696,57.287 400,57.287ZM433.309,446.662C511.778,431.146 571.024,361.88 571.024,278.886C571.024,184.495 494.391,107.862 400,107.862C305.609,107.862 228.976,184.495 228.976,278.886C228.976,361.377 287.505,430.306 365.266,446.374C378.077,429.95 404.436,385.762 377.739,324.951C375.79,324.539 373.881,324.019 372.019,323.396C367.938,326.547 362.824,328.423 357.274,328.423C349.144,328.423 341.947,324.398 337.568,318.233C333.354,320.185 328.661,321.274 323.715,321.274C305.484,321.274 290.682,306.473 290.682,288.242C290.682,270.897 304.079,256.657 321.081,255.313C323.662,236.936 339.465,222.778 358.549,222.778C360.403,222.778 362.226,222.911 364.009,223.169C369.007,201.62 388.341,185.541 411.401,185.541C437.251,185.541 458.419,205.747 459.959,231.213C479.36,231.956 494.883,247.94 494.883,267.522C494.883,269.18 494.772,270.813 494.556,272.413C504.993,274.374 512.901,283.545 512.901,294.548C512.901,306.978 502.809,317.07 490.379,317.07C489.537,317.07 488.707,317.024 487.889,316.934C483.969,323.468 476.816,327.844 468.649,327.844C464.051,327.844 459.774,326.457 456.215,324.078C452.231,326.125 447.715,327.28 442.932,327.28C437.185,327.28 431.824,325.612 427.308,322.734C420.976,334.385 415.056,352.877 416.936,380.07C420.678,381.454 426.301,381.795 436.948,379.408C437.051,379.385 437.153,379.362 437.255,379.339C438.723,377.573 440.251,375.156 440.495,372.54C439.973,372.046 439.489,371.517 439.046,370.958C437.866,371.02 436.657,370.889 435.46,370.543C429.705,368.878 426.385,362.854 428.05,357.099C429.707,351.37 435.685,348.053 441.417,349.667C445.144,346.679 450.218,345.488 455.151,346.915C460.603,348.492 464.494,352.866 465.715,358.026C466.745,357.909 467.816,357.989 468.874,358.295C473.168,359.538 475.646,364.033 474.403,368.327C473.446,371.636 470.558,373.866 467.318,374.148C465.041,377.759 460.569,379.592 456.265,378.347C454.979,377.975 453.827,377.362 452.844,376.573C451.708,376.718 450.546,376.735 449.376,376.614C446.127,382.436 428.494,383.853 422.393,386.686C420.614,387.512 419.247,389.507 418.201,391.978C420.418,407.622 425.092,425.759 433.309,446.662ZM442.1,373.864C441.71,375.35 441.148,377.079 440.39,378.514C443.21,377.662 445.011,376.764 446.147,375.919C444.668,375.429 443.311,374.73 442.1,373.864ZM412.336,320.37C405.565,323.836 397.94,325.868 389.864,326.064C390.855,329.02 393.414,333.831 400.007,338.317C404.766,341.555 411.847,332.371 412.336,320.37Z" style="fill:rgb(2,168,168);"/>
        </g>
    </g>
</svg>
